<svg height="60" viewBox="0 0 21 9" fill="none" xmlns="http://www.w3.org/2000/svg">
<path d="M3.516 7.04C3.516 7.472 3.72 7.808 4.008 8.096C4.224 8.3 4.404 8.228 4.548 8.024C5.652 6.32 7.044 4.532 7.992 3.308C9.204 1.748 9.348 1.196 9.288 0.763996C9.252 0.487996 9.048 0.415996 8.832 0.679997C7.668 2.156 5.892 4.28 4.644 6.212C5.088 4.496 5.424 3.692 5.796 2.588C5.952 2.132 6.012 1.844 6.012 1.628C6.012 1.364 5.928 1.184 5.784 0.991996C5.616 0.751996 5.424 0.811996 5.292 0.967996C4.236 2.24 2.736 4.244 1.644 5.924C2.088 4.424 2.328 3.932 2.724 2.876C2.964 2.228 3.12 1.7 3.12 1.364C3.12 1.148 3.084 0.991996 2.964 0.775996C2.808 0.511997 2.604 0.523996 2.436 0.823996C1.848 1.952 0.888002 4.676 0.468002 6.464C0.408002 6.74 0.372002 6.956 0.372002 7.172C0.372002 7.604 0.516002 7.892 0.828002 8.168C1.068 8.36 1.26 8.276 1.38 8.084C2.208 6.752 3.408 5.036 4.392 3.704C4.08 4.664 3.732 5.732 3.588 6.404C3.54 6.644 3.516 6.86 3.516 7.04Z" fill="url(#paint0_linear_2_6)"/>
<path d="M9.30422 2.756C8.93222 2.756 8.16422 3.608 8.16422 4.22C8.16422 4.376 8.24822 4.532 8.39222 4.664C7.73222 5.48 7.12022 6.464 6.91622 6.848C6.74822 7.16 6.66422 7.448 6.66422 7.712C6.66422 7.976 6.76022 8.228 6.96422 8.42C7.18022 8.648 7.33622 8.54 7.38422 8.324C7.55222 7.496 8.23622 6.392 9.13622 4.832C9.40022 4.82 9.70022 4.772 10.0122 4.64C9.41222 5.372 8.77622 6.296 8.77622 7.064C8.77622 7.712 9.17222 8.228 9.90422 8.228C10.5882 8.228 11.2962 7.712 11.5842 7.028C11.7162 6.704 11.7042 6.416 11.6202 6.248C11.5122 6.032 11.3442 6.044 11.2482 6.26C10.8762 7.088 10.3962 7.76 9.98822 7.76C9.82022 7.76 9.72422 7.568 9.72422 7.256C9.72422 6.548 10.4082 5.6 11.0562 4.856C11.1882 4.7 11.2482 4.532 11.2482 4.388C11.2482 4.1 11.0682 3.788 10.9002 3.62C10.7442 3.464 10.6242 3.488 10.4202 3.632C10.0602 3.896 9.73622 4.064 9.44822 4.136C9.58022 3.752 9.66422 3.404 9.66422 3.176C9.66422 2.9 9.55622 2.756 9.30422 2.756Z" fill="url(#paint1_linear_2_6)"/>
<path d="M13.1212 2.708C13.1212 3.08 13.4452 3.44 13.8292 3.44C14.1292 3.44 14.3092 3.164 14.3092 2.84C14.3092 2.492 13.9852 2.06 13.6492 2.06C13.3732 2.06 13.1212 2.372 13.1212 2.708ZM14.0092 6.92C14.1652 6.608 14.1772 6.308 14.0692 6.104C13.9612 5.888 13.8052 5.864 13.7092 6.08C13.3372 6.896 12.7132 7.7 12.2332 7.7C12.1012 7.7 12.0532 7.592 12.0532 7.4C12.0532 7.208 12.1132 6.956 12.2212 6.68C12.4252 6.2 12.9772 5.3 13.2052 4.784C13.5172 4.184 13.4212 3.668 13.1932 3.428C13.0372 3.248 12.8932 3.272 12.7132 3.512C12.2692 4.136 11.5012 5.528 11.2012 6.368C11.1052 6.68 11.0572 6.932 11.0572 7.16C11.0572 7.76 11.3812 8.18 12.1132 8.18C12.8212 8.18 13.6492 7.676 14.0092 6.92Z" fill="url(#paint2_linear_2_6)"/>
<path d="M13.5912 6.836C13.5912 7.664 14.1432 8.18 14.7792 8.18C15.7872 8.18 16.5912 7.148 16.7592 6.788C16.8912 6.512 16.9392 6.332 16.8792 6.08C16.7952 5.756 16.5192 5.78 16.3872 6.068C15.9672 6.968 15.3432 7.724 14.8752 7.724C14.6712 7.724 14.5512 7.472 14.5512 7.112C14.5512 6.848 14.6232 6.536 14.7672 6.212C15.1872 5.3 15.8712 4.112 16.3272 3.332C16.5912 3.296 16.9032 3.272 17.1192 3.296C17.4072 3.332 17.4912 3.188 17.3712 2.972C17.2872 2.828 17.0832 2.636 16.7112 2.588C16.8552 2.252 16.9032 1.976 16.9032 1.76C16.9032 1.616 16.8552 1.412 16.7712 1.268C16.6392 1.04 16.4952 1.028 16.3152 1.292C16.0392 1.688 15.7872 2.084 15.4152 2.732C15.1512 2.756 14.8272 2.768 14.5512 2.756C14.2752 2.744 14.1552 2.864 14.3232 3.116C14.4192 3.26 14.6352 3.392 15.0072 3.44C14.5272 4.304 14.0712 5.252 13.8312 5.84C13.6632 6.236 13.5912 6.572 13.5912 6.836Z" fill="url(#paint3_linear_2_6)"/>
<path d="M19.0193 3.908C19.1513 4.016 18.8993 4.58 18.5513 5.048C18.3113 5.372 17.9273 5.732 17.6393 5.732C17.5553 5.732 17.4713 5.708 17.3753 5.648C17.9513 4.496 18.8393 3.764 19.0193 3.908ZM19.9193 4.388C19.9193 4.232 19.8713 4.052 19.7993 3.944C19.6313 3.704 19.3913 3.512 19.0553 3.32C18.9353 3.248 18.8033 3.224 18.6353 3.224C17.9393 3.224 16.9673 3.86 16.3433 5.132C16.0913 5.612 15.9713 6.08 15.9713 6.512C15.9713 7.472 16.5833 8.204 17.6993 8.192C18.6353 8.18 19.5953 7.616 20.0993 6.884C20.3153 6.56 20.3033 6.212 20.2673 6.104C20.1713 5.864 20.0153 5.888 19.8833 6.08C19.3913 6.824 18.5873 7.712 17.6753 7.712C17.3153 7.712 17.0993 7.34 17.0993 6.812C17.0993 6.596 17.1353 6.344 17.2073 6.104C17.4833 6.284 17.7713 6.368 18.0593 6.368C19.1153 6.368 19.9193 5.108 19.9193 4.388Z" fill="url(#paint4_linear_2_6)"/>
<defs>
<linearGradient id="paint0_linear_2_6" x1="-8.32878e-08" y1="5" x2="20" y2="5.5" gradientUnits="userSpaceOnUse">
<stop stop-color="#6ABEFB"/>
<stop offset="1" stop-color="#6CCB87"/>
</linearGradient>
<linearGradient id="paint1_linear_2_6" x1="-8.32878e-08" y1="5" x2="20" y2="5.5" gradientUnits="userSpaceOnUse">
<stop stop-color="#6ABEFB"/>
<stop offset="1" stop-color="#6CCB87"/>
</linearGradient>
<linearGradient id="paint2_linear_2_6" x1="-8.32878e-08" y1="5" x2="20" y2="5.5" gradientUnits="userSpaceOnUse">
<stop stop-color="#6ABEFB"/>
<stop offset="1" stop-color="#6CCB87"/>
</linearGradient>
<linearGradient id="paint3_linear_2_6" x1="-8.32878e-08" y1="5" x2="20" y2="5.5" gradientUnits="userSpaceOnUse">
<stop stop-color="#6ABEFB"/>
<stop offset="1" stop-color="#6CCB87"/>
</linearGradient>
<linearGradient id="paint4_linear_2_6" x1="-8.32878e-08" y1="5" x2="20" y2="5.5" gradientUnits="userSpaceOnUse">
<stop stop-color="#6ABEFB"/>
<stop offset="1" stop-color="#6CCB87"/>
</linearGradient>
</defs>
</svg>
